<?xml version="1.0" standalone="no" ?>
<?xml-stylesheet href="/css/scrofasearchsvg.css" type="text/css"?>
<svg id="smSearchSvg" width="100%" height="100%" viewBox="0 0 100 100" xmlns:svg="http://www.w3.org/2000/svg" xmlns="http://www.w3.org/2000/svg" xmlns:xlink="http://www.w3.org/1999/xlink">
	<title></title>
	<desc></desc>
	<defs>
<!--
		<filter id="smSearchGlowFilter">
			<feGaussianBlur stdDeviation="2" />
		</filter>
-->
		<text id="smSearchTextDef" x="0" y="3" class="smSearchText"><tspan x="0" dy="1.2em" class="smSearchTextC">Выбранные тэги:</tspan></text> <!-- Удалить -->
		<tspan id="smSearchTspanDef" x="0" dy="1.2em"></tspan> <!-- Удалить -->
		<text id="smSearchResTextDef" x="90" y="3" class="smSearchText"><tspan x="90" dy="1.2em" class="smSearchTextC">Результаты:</tspan></text>
		<tspan id="smSearchResTspanDef" x="90" dy="1.2em"></tspan>
		<g id="smSearchSelectedDef" transform="translate(0, 1)">
			<circle cx="0" cy="0" r="6" />
		</g>
		<g id="smSearchGroupDef" />
		<g id="smSearchImageDef">
			<path />
			<text>
				<textPath>
					<tspan dx="5" dy="-3"></tspan>
				</textPath>
			</text>
		</g>
		<linearGradient id="smSearchGC1Def">
			<stop offset="0" />
			<stop offset="1" />
		</linearGradient>
		<linearGradient id="smSearchGC2Def">
			<stop offset="0" />
			<stop offset="0.5" />
			<stop offset="1" />
		</linearGradient>
		<linearGradient id="smSearchGC3Def">
			<stop offset="0" />
			<stop offset="0.25" />
			<stop offset="0.5" />
			<stop offset="0.75" />
			<stop offset="1" />
		</linearGradient>
		<linearGradient x1="0" y1="18" x2="0" y2="6" id="smSearchG1Def" xlink:href="#smSearchGC1Def" gradientUnits="userSpaceOnUse" />
		<linearGradient x1="0" y1="15" x2="0" y2="8.3" id="smSearchG2Def" xlink:href="#smSearchGC1Def" gradientUnits="userSpaceOnUse" />
		<linearGradient x1="0" y1="7" x2="0" y2="-53" id="smSearchG4Def" xlink:href="#smSearchGC3Def" gradientUnits="userSpaceOnUse" gradientTransform="translate(0, -2)" />
		<radialGradient cx="0" cy="0" r="100" id="smSearchG3Def" xlink:href="#smSearchGC2Def" gradientUnits="userSpaceOnUse" />
	</defs>
	<g id="gC" transform="translate(50, 50)">
		<g id="g0" class="smSearchGroup zoom" style="transform: scale(0.6);" />
		<g id="gB" style="stroke: url(#smSearchG3Def);" pointer-events="none" class="flickering">
			<line x1="-100" y1="-100" x2="100" y2="100" transform="rotate(0)" />
			<line x1="-100" y1="-100" x2="100" y2="100" transform="rotate(30)" />
			<line x1="-100" y1="-100" x2="100" y2="100" transform="rotate(60)" />
			<line x1="-100" y1="-100" x2="100" y2="100" transform="rotate(90)" />
			<line x1="-100" y1="-100" x2="100" y2="100" transform="rotate(120)" />
			<line x1="-100" y1="-100" x2="100" y2="100" transform="rotate(150)" />
			<line x1="-100" y1="-100" x2="100" y2="100" transform="rotate(180)" />
			<line x1="-100" y1="-100" x2="100" y2="100" transform="rotate(210)" />
			<line x1="-100" y1="-100" x2="100" y2="100" transform="rotate(240)" />
			<line x1="-100" y1="-100" x2="100" y2="100" transform="rotate(270)" />
			<line x1="-100" y1="-100" x2="100" y2="100" transform="rotate(300)" />
			<line x1="-100" y1="-100" x2="100" y2="100" transform="rotate(330)" />
		</g>
		<g id="gS">
			<g id="gSI" pointer-events="none">
				<circle id="gSIC" cx="0" cy="0" r="17" />
				<path id="gSIP" transform="translate(0, -6)" d="M9.08877407233 9.28182245186C9.08877407233 9.28182245186 16.881983826 13.3659608738 16.881983826 13.3659608738C18.4779026908 14.2023240361 17.6213333333 15.0 14.6666666667 15.0C14.6666666667 15.0 -14.6666666667 15.0 -14.6666666667 15.0C-17.6213333333 15.0 -18.4779026908 14.2023240361 -16.881983826 13.3659608738C-16.881983826 13.3659608738 -9.08877407233 9.28182245186 -9.08877407233 9.28182245186C-8.68493660152 9.07018588837 -7.387744 8.913 -6.149 8.913C-6.149 8.913 6.149 8.913 6.149 8.913C7.387744 8.913 8.68493660152 9.07018588837 9.08877407233 9.28182245186C9.08877407233 9.28182245186 9.08877407233 9.28182245186 9.08877407233 9.28182245186" style="fill: url(#smSearchG1Def); stroke: url(#smSearchG2Def);" />
				<path id="gSIA" d="M -2.5 -8 -2.5 0 -7 0 0 7 7 0 2.5 0 2.5 -8 Z" transform="translate(0, -2)" style="fill: url(#smSearchG4Def);" />
			</g>
		</g>
<!--
		<text id="temp" x="0" y="0" style="font-family: Verdana, Arial, Helvetica, sans-serif; font-size: 6px; fill: white;">asd</text>
-->
	</g>
</svg>
